<?xml version="1.0" encoding="UTF-8" standalone="no"?>
<!-- Created with Inkscape (http://www.inkscape.org/) -->

<svg
   width="175.7319mm"
   height="78.428291mm"
   viewBox="0 0 175.7319 78.428291"
   version="1.1"
   id="svg1"
   xml:space="preserve"
   inkscape:version="1.4.1 (93de688d07, 2025-03-30)"
   sodipodi:docname="logo_ISIMA_SVG_replique.svg"
   xmlns:inkscape="http://www.inkscape.org/namespaces/inkscape"
   xmlns:sodipodi="http://sodipodi.sourceforge.net/DTD/sodipodi-0.dtd"
   xmlns="http://www.w3.org/2000/svg"
   xmlns:svg="http://www.w3.org/2000/svg"><sodipodi:namedview
     id="namedview1"
     pagecolor="#505050"
     bordercolor="#ffffff"
     borderopacity="1"
     inkscape:showpageshadow="0"
     inkscape:pageopacity="0"
     inkscape:pagecheckerboard="1"
     inkscape:deskcolor="#505050"
     inkscape:document-units="mm"
     inkscape:zoom="1.4142136"
     inkscape:cx="137.17872"
     inkscape:cy="140.3607"
     inkscape:window-width="1280"
     inkscape:window-height="684"
     inkscape:window-x="0"
     inkscape:window-y="0"
     inkscape:window-maximized="1"
     inkscape:current-layer="svg1" /><defs
     id="defs1"><inkscape:perspective
       sodipodi:type="inkscape:persp3d"
       inkscape:vp_x="0 : -70.071716 : 1"
       inkscape:vp_y="0 : 1000 : 0"
       inkscape:vp_z="209.99999 : -70.071716 : 1"
       inkscape:persp3d-origin="105 : -119.57172 : 1"
       id="perspective32" /><inkscape:path-effect
       effect="fillet_chamfer"
       id="path-effect5"
       is_visible="true"
       lpeversion="1"
       nodesatellites_param="F,0,0,1,0,0,0,1 @ F,0,0,1,0,0,0,1 @ F,0,0,1,0,0,0,1 @ F,0,0,1,0,0,0,1"
       radius="0"
       unit="px"
       method="auto"
       mode="F"
       chamfer_steps="1"
       flexible="false"
       use_knot_distance="true"
       apply_no_radius="true"
       apply_with_radius="true"
       only_selected="false"
       hide_knots="false" /><inkscape:path-effect
       effect="fillet_chamfer"
       id="path-effect4"
       is_visible="true"
       lpeversion="1"
       nodesatellites_param="F,0,0,1,0,0,0,1 @ F,0,0,1,0,0,0,1 @ F,0,0,1,0,0,0,1 @ F,0,0,1,0,0,0,1"
       radius="0"
       unit="px"
       method="auto"
       mode="F"
       chamfer_steps="1"
       flexible="false"
       use_knot_distance="true"
       apply_no_radius="true"
       apply_with_radius="true"
       only_selected="false"
       hide_knots="false" /><inkscape:path-effect
       effect="fillet_chamfer"
       id="path-effect3"
       is_visible="true"
       lpeversion="1"
       nodesatellites_param="F,0,0,1,0,3.1703603,0,1 @ F,0,0,1,0,0,0,1 @ F,0,0,1,0,0,0,1 @ F,0,0,1,0,0,0,1"
       radius="0"
       unit="px"
       method="auto"
       mode="F"
       chamfer_steps="1"
       flexible="false"
       use_knot_distance="true"
       apply_no_radius="true"
       apply_with_radius="true"
       only_selected="false"
       hide_knots="false" /></defs><g
     inkscape:groupmode="layer"
     id="layer2"
     inkscape:label="SVG"
     transform="translate(-10.374594,-109.51166)"><g
       id="UCA"><path
         id="path10"
         style="opacity:1;fill:#2a2f46;stroke-width:0.42739"
         d="m 12.097453,173.54341 a 1.5,1.5 0 0 0 -1.476396,1.23559 h -0.02274 v 0.21549 a 1.5,1.5 0 0 0 -10e-4,0.0491 1.5,1.5 0 0 0 10e-4,0.0491 v 5.15266 a 7.539,7.1727657 0 0 0 0,1.03559 v 0.16227 h 0.01447 a 7.539,7.1727657 0 0 0 3.145028,5.17178 7.539,7.1727657 0 0 0 7.821744,0.52038 7.539,7.1727657 0 0 0 2.55385,-2.07171 7.5389547,7.1727657 0 0 0 8.207251,2.49855 7.5389547,7.1727657 0 0 0 5.303035,-6.85022 h -0.03359 a 4.2841945,4.361156 89.999995 0 1 4.359424,-4.16202 4.2841945,4.361156 89.999995 0 1 4.361491,4.28397 4.2841945,4.361156 89.999995 0 1 0,0.0258 v 4.8612 h 0.01757 a 2.1100299,2.0843761 0 0 0 -0.0047,0.13488 2.1100299,2.0843761 0 0 0 2.109949,2.08411 2.1100299,2.0843761 0 0 0 2.08101,-1.757 2.1100299,2.0843761 0 0 1 -1.024744,-1.08624 v -4.23695 h 0.0021 a 7.570325,7.2834584 5.0182083 0 0 -0.0021,-0.0274 v -0.0977 h -0.0072 a 7.570325,7.2834584 5.0182083 0 0 -7.609872,-7.1608 7.570325,7.2834584 5.0182083 0 0 -7.516337,7.13807 h -0.04341 a 4.2981806,4.2066331 0 0 1 0,0.01 4.2981806,4.2066331 0 0 1 -4.298446,4.20697 4.2981806,4.2066331 0 0 1 -4.297929,-4.20697 4.2981806,4.2066331 0 0 1 4.297929,-4.20647 4.2981806,4.2066331 0 0 1 1.635559,0.31626 l 0.0016,-0.004 a 1.5,1.5 0 0 0 0.506945,0.0884 1.5,1.5 0 0 0 1.500167,-1.50016 1.5,1.5 0 0 0 -0.885217,-1.36788 l 0.01292,-0.0326 a 7.5389547,7.1727657 0 0 0 -3.129525,-0.46508 7.5389547,7.1727657 0 0 0 -5.492688,2.72076 7.5389547,7.1727657 0 0 0 -1.590084,5.06688 4.5542274,4.3897281 0 0 1 -4.46691,3.53518 4.5542274,4.3897281 0 0 1 -4.52944,-3.93206 V 174.779 h -0.02429 a 1.5,1.5 0 0 0 -1.476395,-1.23559 z" /><ellipse
         style="fill:#2a2f46;stroke-width:0.570057"
         id="path10-3"
         cx="42.00132"
         cy="180.67856"
         rx="2.0526936"
         ry="1.9500471" /></g><g
       id="INP"><path
         id="P__INP_"
         style="fill:#2a2f46;fill-opacity:1;stroke-width:0.530849"
         d="M 72.470545 133.79287 C 70.418417 133.86238 66.314332 134.71026 66.314332 140.38109 L 66.314332 170.12863 L 73.610527 170.12863 L 73.610527 140.38109 L 82.419809 140.38109 L 82.419809 140.39453 A 5.7560596 5.8134251 0 0 1 82.810999 140.38109 A 5.7560596 5.8134251 0 0 1 88.567237 146.19469 A 5.7560596 5.8134251 0 0 1 82.810999 152.00829 A 5.7560596 5.8134251 0 0 1 82.419809 151.99485 L 82.419809 152.00829 L 76.690443 152.00829 L 76.690443 158.5066 L 82.612562 158.5066 L 82.612562 158.50557 A 13.638565 12.33672 0 0 0 96.058253 146.16989 A 13.638565 12.33672 0 0 0 82.513343 133.83369 L 82.513343 133.83317 L 73.610527 133.83317 C 73.610527 133.83317 73.154588 133.76969 72.470545 133.79287 z " /><g
         id="N__INP_"><path
           id="rect1"
           style="fill:#2a2f46;fill-opacity:1;stroke-width:0.523999"
           d="M 28.511471 133.66833 A 4.4794145 4 0 0 0 24.032158 137.6686 A 4.4794145 4 0 0 0 24.032158 137.67015 L 24.032158 170.12863 L 30.954216 170.12863 L 30.954216 142.72617 L 46.185328 153.26403 L 49.476083 155.71452 L 49.476083 148.51445 L 49.476083 147.12332 L 31.477182 134.67085 A 4.4794145 4 0 0 0 28.511471 133.66833 z " /><path
           id="rect1-2"
           style="fill:#00589b;fill-opacity:1;stroke-width:0.523999"
           d="m 54.587597,170.22217 a 4.4794145,4 0 0 0 4.479313,-4.00027 4.4794145,4 0 0 0 0,-0.002 v -32.45848 h -6.922058 v 27.40246 L 36.91374,150.62602 33.622985,148.17553 v 7.20007 1.39113 l 17.998901,12.45292 a 4.4794145,4 0 0 0 2.965711,1.00252 z" /></g><g
         id="I__INP_"><path
           style="fill:#2a2f46;fill-opacity:1;stroke:none;stroke-width:0.267509;stroke-dasharray:none;stroke-opacity:1"
           d="m 10.379153,152.22174 v -18.36479 h 3.5 3.5 v 18.36479 18.3648 h -3.5 -3.5 z"
           id="I_Rect__INP_" /><path
           style="fill:#00589b;stroke-width:0.523999;fill-opacity:1"
           d="m 10.374594,129.50676 c 0,0 -0.841899,-7.50693 6.852122,-7.97465 0,6.57149 0,6.57149 0,6.57149 v 1.37978 z"
           id="I_Point__INP_" /></g></g><g
       id="ISIMA"
       style="fill:#00589b;fill-opacity:1"><path
         style="fill:#00589b;fill-opacity:1;stroke-width:1.08626"
         d="m 416.57481,574.53866 v -67.73797 h 8.77577 8.77577 v 67.73797 67.73797 h -8.77577 -8.77577 z"
         id="First_I__ISIMA_"
         transform="scale(0.26458333)" /><path
         id="S__ISIMA_"
         style="fill:#00589b;fill-opacity:1;stroke-width:0.0876334"
         d="m 126.08016,142.27969 a 6.8460002,6.3755207 0 0 0 -6.84351,6.20117 h -0.009 v 1.42213 1.42214 h 5.2e-4 c -0.0123,0.12144 -0.33118,3.78661 5.52266,6.69727 5e-4,-5.7e-4 0.001,-9.9e-4 0.002,-0.002 0.0992,0.0546 3.09401,1.71396 3.43803,3.35793 v 1.44591 1.32601 h -0.002 a 2.1258373,2.0992186 0 0 1 -2.12597,2.07636 2.1258373,2.0992186 0 0 1 -2.12545,-2.07636 h -5.2e-4 v -1.58491 -1.63711 h -2.36316 -2.36317 v 1.63711 1.63711 h 0.003 a 6.8518467,6.3755207 0 0 0 6.85178,6.32364 6.8518467,6.3755207 0 0 0 6.83989,-5.99498 h 0.0124 v -1.70687 -1.70739 h -0.002 v -5.2e-4 c 0,0 -0.13197,-3.95067 -4.81469,-6.12831 h -5.2e-4 -5.1e-4 v -5.1e-4 h -5.2e-4 l -0.47077,-0.27182 v -5.2e-4 h 5.2e-4 v -5.2e-4 c 0,0 -3.50109,-1.95416 -3.70004,-3.38997 h 0.0258 v -1.42214 -1.26193 a 2.1240234,2.0992186 0 0 1 2.1239,-2.06189 2.1240234,2.0992186 0 0 1 2.12339,2.05879 h -0.003 v 1.63711 1.6371 h 2.36317 2.36316 v -1.6371 -1.62006 h 0.001 a 6.8460002,6.3755207 0 0 0 -6.84609,-6.37532 z" /><g
         id="Second_I__ISIMA_"
         style="fill:#00589b;fill-opacity:1"><path
           style="fill:#00589b;fill-opacity:1;stroke-width:0.250408"
           d="m 137.12195,156.46198 v -13.60501 h 2.32193 2.32192 v 13.60501 13.60502 h -2.32192 -2.32193 z"
           id="Second_I_Bar__ISIMA_" /><ellipse
           style="fill:#00589b;fill-opacity:1;stroke-width:0.444902"
           id="Second_I_Point__ISIMA_"
           cx="139.40306"
           cy="136.15787"
           rx="2.7959228"
           ry="2.7577899" /></g><path
         id="M__ISIMA_"
         style="fill:#00589b;fill-opacity:1;stroke-width:0.226582"
         d="m 152.58397,142.20941 a 6.1059999,5.6000552 0 0 0 -4.408,1.47639 6.1059999,5.6000552 0 0 0 -1.96784,4.115 h -0.003 v 11.13885 11.13937 h 2.32182 2.32182 v -11.13937 -10.47326 a 2.0494292,2.031745 0 0 1 2.04639,-1.92856 2.0494292,2.031745 0 0 1 2.04742,1.93993 v 9.15706 12.42302 h 2.32182 2.32182 v -12.42302 -9.09918 h 5.2e-4 a 2.0680487,2 0 0 1 2.06706,-1.93374 2.0680487,2 0 0 1 2.06602,1.91513 v 10.5544 11.00294 h 2.32234 2.32182 v -11.00294 -11.00347 h -0.002 a 6.2129998,5.7574115 0 0 0 -2.21898,-4.362 6.2129998,5.7574115 0 0 0 -3.87315,-1.34566 6.2129998,5.7574115 0 0 0 -3.22668,0.76998 6.2129998,5.7574115 0 0 0 -1.76526,1.41284 6.1059999,5.6000552 0 0 0 -1.66812,-1.45366 6.1059999,5.6000552 0 0 0 -3.02617,-0.88005 z" /><path
         id="A__ISIMA_"
         style="display:inline;fill:#00589b;fill-opacity:1;stroke-width:0.195082"
         d="m 179.24436,142.32723 a 6.8520002,6.257247 0 0 0 -6.85075,6.11797 h -0.009 v 1.72651 1.726 h 2.36885 2.36936 v -1.726 -1.62832 a 2.1563854,2.0904987 0 0 1 2.15284,-1.97714 2.1563854,2.0904987 0 0 1 2.15233,1.96267 v 4.76405 l -5.08497,2.17144 c 0,0 -3.99344,1.62212 -3.95686,5.68028 v 1.72961 1.72961 h 0.003 a 6.8590002,6.0298214 0 0 0 2.92489,4.93871 6.8590002,6.0298214 0 0 0 7.86825,0 6.8590002,6.0298214 0 0 0 2.92127,-4.74131 h 0.002 v -0.0491 a 6.8590002,6.0298214 0 0 0 0,-0.29818 v -7.85171 -8.19899 h -0.0114 a 6.8520002,6.257247 0 0 0 -6.84867,-6.07611 z m 2.18333,15.49621 v 6.32933 a 2.1519601,2.176796 0 0 1 -2.15129,2.12235 2.1519601,2.176796 0 0 1 -2.15233,-2.17196 h -5.1e-4 v -1.22886 -1.72961 c 0,0 -0.11359,-0.86263 1.01234,-1.91565 z" /></g><g
       id="CLERMONT"><path
         id="T__CLERMONT_"
         style="fill:#2a2f46;fill-opacity:1;stroke-width:0.522555"
         d="m 89.273621,109.74214 v 1.8495 h 2.501139 v 6.59184 h 2.459798 v -6.59184 h 2.52181 v -1.8495 z" /><path
         id="N__CLERMONT_"
         style="fill:#2a2f46;fill-opacity:1;stroke-width:0.523999"
         d="m 80.039559,109.74214 v 8.44134 h 2.376599 v -4.43383 l 2.563668,4.43383 h 2.459281 v -8.44134 h -2.459281 v 4.22093 l -2.563668,-4.22093 z" /><path
         id="O__CLERMONT_"
         style="display:inline;opacity:1;fill:#2a2f46;fill-opacity:1;stroke-width:0.693325"
         d="m 73.963961,109.51166 a 3.8873472,4.3984647 0 0 0 -3.887618,4.3987 3.8873472,4.3984647 0 0 0 3.887618,4.39818 3.8873472,4.3984647 0 0 0 3.887101,-4.39818 3.8873472,4.3984647 0 0 0 -3.887101,-4.3987 z m 0.01033,2.00195 a 1.5007455,2.4282894 0 0 1 1.500684,2.42827 1.5007455,2.4282894 0 0 1 -1.500684,2.42828 1.5007455,2.4282894 0 0 1 -1.500684,-2.42828 1.5007455,2.4282894 0 0 1 1.500684,-2.42827 z" /><path
         id="M__CLERMONT_"
         style="fill:#2a2f46;fill-opacity:1;stroke-width:0.523999"
         d="m 58.404187,109.67858 v 2.83548 5.71077 h 2.41794 v -4.60748 l 1.548743,4.60748 h 1.563729 l 1.548742,-4.60748 v 4.60748 h 2.417941 v -5.71077 -2.83548 h -2.417941 -0.604097 l -1.72651,5.13715 -1.726509,-5.13715 h -0.604098 z" /><path
         id="R__CLERMONT_"
         style="fill:#2a2f46;fill-opacity:1;stroke-width:0.523999"
         d="m 49.157723,109.67858 v 8.54625 h 2.502173 v -2.79105 h 0.728638 l 1.503784,2.79105 h 2.461348 v -0.4036 l -1.632458,-3.01894 a 3.210614,2.794883 0 0 0 1.435571,-2.32905 3.210614,2.794883 0 0 0 -3.210657,-2.79466 h -1.286226 z m 2.502173,2.01331 h 1.286226 v 0.001 a 0.83901852,0.86528087 0 0 1 0.798401,0.86455 0.83901852,0.86528087 0 0 1 -0.798401,0.86403 v 0.001 h -1.286226 z" /><path
         id="E__CLERMONT_"
         style="fill:#2a2f46;fill-opacity:1;stroke-width:0.523999"
         d="m 41.042456,109.67858 v 1.9668 4.61316 1.96629 h 6.197555 v -1.96629 h -3.694865 v -1.33946 h 3.180167 v -2.01124 h -3.180167 v -1.26246 h 3.694865 v -1.9668 z" /><path
         id="L__CLERMONT_"
         style="fill:#2a2f46;fill-opacity:1;stroke-width:0.529829"
         d="m 33.041394,109.67858 v 8.58242 h 2.537313 3.54862 v -1.95182 h -3.54862 v -6.6306 z" /><path
         id="C__CLERMONT_"
         style="display:inline;opacity:1;fill:#2a2f46;fill-opacity:1;stroke-width:0.693325"
         d="m 27.341484,109.57161 a 3.8873472,4.3984647 0 0 0 -3.887618,4.39869 3.8873472,4.3984647 0 0 0 3.887618,4.39819 3.8873472,4.3984647 0 0 0 3.772896,-3.34244 h -2.402437 a 1.5007455,2.4282894 0 0 1 -1.360641,1.40405 1.5007455,2.4282894 0 0 1 -1.500684,-2.42827 1.5007455,2.4282894 0 0 1 1.500684,-2.42828 1.5007455,2.4282894 0 0 1 1.34152,1.33997 h 2.421558 a 3.8873472,4.3984647 0 0 0 -3.772896,-3.34191 z" /></g><g
       id="AUVERGNE"><path
         id="E_2__AUVERGNE_"
         style="fill:#2a2f46;fill-opacity:1;stroke-width:0.523999"
         d="m 88.914457,120.994 v 1.9668 4.61316 1.96629 h 6.197555 v -1.96629 h -3.694865 v -1.33946 h 3.180167 v -2.01124 h -3.180167 v -1.26246 h 3.694865 v -1.9668 z" /><path
         id="N__AUVERGNE_"
         style="fill:#2a2f46;fill-opacity:1;stroke-width:0.523999"
         d="m 79.161119,121.09891 v 8.44134 h 2.376599 v -4.43383 l 2.563668,4.43383 h 2.459281 v -8.44134 h -2.459281 v 4.22093 l -2.563668,-4.22093 z" /><path
         id="G__AUVERGNE_"
         style="display:inline;fill:#2a2f46;fill-opacity:1;stroke-width:0.693325"
         d="m 73.136104,120.75645 a 3.8873472,4.3984647 0 0 0 -3.887618,4.3987 3.8873472,4.3984647 0 0 0 0.07493,0.8599 4.1186957,3.6606319 0 0 0 2.059306,3.17035 4.1186957,3.6606319 0 0 0 4.118612,0 4.1186957,3.6606319 0 0 0 1.193208,-0.9245 v -1.33686 a 3.8873472,4.3984647 0 0 0 5.17e-4,-0.002 v -0.35606 -0.35553 -1.44746 h -3.900537 v 1.80299 h 1.582332 a 1.5018547,2.460057 0 0 1 -1.021126,1.02475 1.5007455,2.4282894 0 0 1 -0.209289,0.0238 1.5018547,2.460057 0 0 1 -5.17e-4,0 1.5018547,2.460057 0 0 1 -1.405599,-1.5999 h -0.0052 a 1.5007455,2.4282894 0 0 1 -0.08992,-0.82838 1.5007455,2.4282894 0 0 1 1.500684,-2.42827 1.5007455,2.4282894 0 0 1 1.34152,1.33997 h 2.421558 a 3.8873472,4.3984647 0 0 0 -3.772897,-3.34192 z" /><path
         id="R__AUVERGNE_"
         style="fill:#2a2f46;fill-opacity:1;stroke-width:0.523999"
         d="m 60.010198,121.04646 v 8.54625 h 2.502173 v -2.79105 h 0.728638 l 1.503784,2.79105 h 2.461348 v -0.4036 l -1.632458,-3.01894 a 3.210614,2.794883 0 0 0 1.435571,-2.32905 3.210614,2.794883 0 0 0 -3.210657,-2.79466 h -1.286226 z m 2.502173,2.01331 h 1.286226 v 0.001 a 0.83901852,0.86528087 0 0 1 0.798401,0.86455 0.83901852,0.86528087 0 0 1 -0.798401,0.86403 v 0.001 h -1.286226 z" /><path
         id="E_1__AUVERGNE_"
         style="fill:#2a2f46;fill-opacity:1;stroke-width:0.523999"
         d="m 51.894931,121.04646 v 1.9668 4.61316 1.96629 h 6.197555 v -1.96629 h -3.694865 v -1.33946 h 3.180167 v -2.01124 h -3.180167 v -1.26246 h 3.694865 v -1.9668 z" /><path
         style="fill:#2a2f46;fill-opacity:1;stroke-width:0.523999"
         d="m 41.916895,121.07116 h 2.726663 l 1.459132,5.26907 1.503347,-5.26907 h 2.697186 l -2.933004,8.49685 h -2.53506 z"
         id="V__AUVERGNE_" /><path
         id="U__AUVERGNE_"
         style="fill:#2a2f46;fill-opacity:1;stroke-width:0.523999"
         d="M 33.191806 121.07116 L 33.191806 126.78244 A 3.5667486 2.8961701 0 0 0 34.97516 129.2903 A 3.5667486 2.8961701 0 0 0 38.541867 129.2903 A 3.5667486 2.8961701 0 0 0 40.325221 126.78244 L 40.325221 121.07116 L 37.81943 121.07116 L 37.81943 126.70803 L 37.81943 126.78244 L 37.81943 126.79226 A 1.0611687 1.0317625 0 0 1 37.288713 127.68574 A 1.0611687 1.0317625 0 0 1 36.227796 127.68574 A 1.0611687 1.0317625 0 0 1 35.697079 126.79226 L 35.697079 126.78244 L 35.697079 126.70803 L 35.697079 121.07116 L 33.191806 121.07116 z " /><path
         id="A__AUVERGNE_"
         style="opacity:1;fill:#2a2f46;stroke-width:0.523999"
         d="m 26.200985,121.07116 -3.193087,8.46357 h 2.736784 l 0.40566,-1.41904 h 2.483052 l 0.506946,1.41904 h 2.533696 l -3.243213,-8.46357 z m 1.165303,3.4463 0.506946,1.57097 h -1.064018 z" /></g></g></svg>
